<?xml version="1.0" encoding="UTF-8" standalone="no"?>
<!DOCTYPE svg PUBLIC "-//W3C//DTD SVG 1.1//EN" "http://www.w3.org/Graphics/SVG/1.1/DTD/svg11.dtd">
<!-- Created with Vectornator (http://vectornator.io/) -->
<svg stroke-miterlimit="10" style="fill-rule:nonzero;clip-rule:evenodd;stroke-linecap:round;stroke-linejoin:round;" version="1.1" viewBox="0 0 3000 3000" width="3000" height="3000" xml:space="preserve" xmlns="http://www.w3.org/2000/svg" xmlns:vectornator="http://vectornator.io" xmlns:xlink="http://www.w3.org/1999/xlink">
<defs/>
<g id="Untitled" vectornator:layerName="Untitled">
<path d="M1881.98 1921.55L1500.4 2028.83L1121.41 1921.55L1121.96 1908.16C1226.52 1932.21 1500.4 1938.95 1500.4 1938.95L1500.4 358.051L1491.67 358.051L1434.1 1046.44C1382.55 1053.46 1333.52 1068.43 1288.32 1090.11C1209.26 1125.39 1153.59 1175.02 1114.49 1229.17C1048 1313.18 1008.28 1419.37 1008.28 1534.83C1008.28 1536.05 1008.32 1537.26 1008.33 1538.48L967.398 1459.2L951.85 1458.97L961.977 1711.99L1096.16 2314.44C1155.42 2456.97 1319.63 2599.57 1368.63 2639.98C1374.21 2644.57 1382.61 2640.62 1382.61 2633.39L1382.61 2223.61L1121.4 1960.35L1121.23 1951.6L1459.95 2130.18L1459.95 2243.58C1459.95 2246.25 1461.01 2248.81 1462.89 2250.71L1495.87 2283.84L1506.68 2283.9L1540.41 2250.72C1542.34 2248.82 1543.43 2246.22 1543.43 2243.51L1543.43 2130.18L1882.15 1951.6L1881.98 1921.55L1881.98 1921.55Z" fill="#131c1b" fill-rule="nonzero" opacity="1" stroke="none"/>
</g>
</svg>
